<?xml version="1.0" standalone="no"?>
<!DOCTYPE svg PUBLIC "-//W3C//DTD SVG 20010904//EN"
 "http://www.w3.org/TR/2001/REC-SVG-20010904/DTD/svg10.dtd">
<svg version="1.0" xmlns="http://www.w3.org/2000/svg"
 width="1080.000000pt" height="1080.000000pt" viewBox="0 0 1080.000000 1080.000000"
 preserveAspectRatio="xMidYMid meet">

<g transform="translate(0.000000,1080.000000) scale(0.100000,-0.100000)"
fill="#000000" stroke="none">
<path d="M5090 9768 c0 -24 -7 -239 -15 -478 -8 -239 -12 -436 -10 -439 3 -2
52 -6 108 -9 125 -5 117 -19 117 184 0 78 3 156 6 173 l7 31 116 0 c64 0 161
-3 215 -7 l99 -6 -6 -192 -6 -193 37 -6 c20 -3 69 -6 109 -6 l72 0 5 33 c6 41
30 917 25 922 -2 2 -52 7 -110 10 l-107 8 -7 -193 -7 -193 -142 6 c-77 4 -176
7 -218 7 l-77 0 6 188 6 189 -78 6 c-43 4 -93 7 -112 7 -32 0 -33 -1 -33 -42z"/>
<path d="M6306 9405 c-111 -46 -183 -123 -217 -237 -70 -230 67 -440 323 -494
140 -30 257 3 354 100 82 82 108 147 109 271 0 82 -3 96 -33 157 -52 106 -160
189 -283 217 -81 19 -188 13 -253 -14z m262 -176 c65 -32 97 -86 96 -164 -1
-149 -108 -245 -236 -215 -97 24 -159 116 -143 214 25 150 156 226 283 165z"/>
<path d="M4037 9356 c-55 -34 -96 -75 -119 -121 l-21 -40 -18 42 -18 42 -90
-36 c-50 -20 -91 -42 -91 -48 0 -14 259 -657 269 -667 9 -10 191 62 191 76 0
6 -32 91 -71 189 -65 164 -71 185 -67 237 5 74 33 111 107 147 l58 28 -35 88
c-20 48 -41 87 -46 87 -6 0 -28 -11 -49 -24z"/>
<path d="M7096 9118 c-3 -13 -6 -50 -6 -83 l0 -60 58 -2 c146 -5 276 -104 258
-196 -12 -63 -15 -62 -132 3 -161 89 -241 108 -322 75 -79 -33 -125 -106 -125
-196 0 -94 65 -180 183 -239 52 -27 156 -38 188 -21 26 14 27 10 7 -30 -9 -16
-13 -34 -10 -38 9 -16 155 -92 164 -86 17 10 226 391 244 445 23 67 19 148
-11 206 -62 122 -281 244 -440 244 -43 0 -50 -3 -56 -22z m121 -449 c107 -56
109 -58 84 -101 -12 -19 -33 -40 -47 -46 -86 -40 -224 28 -224 110 0 38 40 78
79 78 16 0 65 -18 108 -41z"/>
<path d="M3290 8987 c-75 -21 -141 -59 -196 -112 -156 -152 -158 -374 -6 -537
55 -58 116 -92 194 -107 200 -37 456 122 502 311 6 26 3 28 -45 42 -28 9 -66
18 -84 22 -31 5 -33 4 -40 -27 -17 -75 -150 -169 -239 -169 -35 0 -116 34
-116 49 0 5 100 73 223 152 122 78 226 146 230 150 13 10 -15 58 -68 117 -88
98 -235 143 -355 109z m164 -193 c35 -24 37 -27 20 -38 -67 -46 -274 -176
-284 -178 -35 -8 -28 124 9 167 74 86 170 105 255 49z"/>
<path d="M4423 8951 c-113 -71 -61 -241 73 -241 116 0 173 135 95 222 -37 41
-118 50 -168 19z"/>
<path d="M7689 8464 c-134 -145 -245 -268 -247 -272 -3 -10 132 -142 146 -142
6 0 70 65 143 145 133 144 199 195 253 195 62 -1 157 -78 171 -139 12 -53 -24
-107 -178 -273 l-147 -156 71 -69 c39 -37 77 -68 84 -68 24 0 333 345 363 405
36 73 38 173 3 238 -53 102 -166 184 -273 198 l-49 7 27 28 c14 15 23 32 20
37 -3 5 -37 37 -74 70 l-68 61 -245 -265z"/>
<path d="M2608 8457 c-134 -51 -231 -160 -245 -278 l-6 -50 -26 26 c-15 14
-29 25 -32 25 -2 0 -35 -33 -72 -74 l-67 -74 361 -348 361 -347 76 77 77 76
-124 117 -124 117 49 11 c104 24 186 94 237 203 27 58 32 78 32 147 0 71 -4
88 -34 148 -40 83 -121 166 -198 204 -45 22 -73 28 -142 30 -55 2 -99 -2 -123
-10z m182 -225 c66 -41 103 -99 107 -169 12 -170 -181 -256 -312 -141 -81 71
-103 152 -66 234 48 106 167 139 271 76z"/>
<path d="M8428 7917 c-181 -68 -283 -233 -248 -403 15 -71 48 -140 92 -190 38
-43 114 -94 140 -94 47 0 -16 -47 -85 -64 -80 -19 -165 41 -222 157 -34 70
-58 177 -47 206 4 12 -6 13 -64 8 -38 -4 -80 -7 -93 -7 -23 0 -24 -2 -19 -62
16 -188 163 -417 310 -483 54 -25 69 -27 142 -23 51 3 98 13 128 26 38 17 574
357 601 382 8 7 -87 162 -104 168 -5 2 -22 -6 -38 -17 l-29 -21 1 73 c0 89
-31 161 -103 240 -70 76 -141 110 -244 114 -52 2 -94 -2 -118 -10z m206 -220
c79 -45 127 -140 112 -222 -10 -53 -76 -119 -135 -135 -81 -22 -171 25 -218
113 -27 52 -23 135 9 184 51 77 155 104 232 60z"/>
<path d="M2074 7731 c-202 -52 -352 -287 -315 -490 23 -126 95 -216 219 -274
59 -28 77 -32 152 -32 75 0 93 4 153 32 126 60 222 189 247 334 29 168 -56
326 -216 401 -71 33 -176 46 -240 29z m142 -220 c81 -37 134 -113 134 -191 -1
-60 -63 -147 -123 -169 -123 -47 -287 62 -287 190 0 56 45 135 93 164 52 31
124 33 183 6z"/>
<path d="M1261 6984 c-18 -52 -31 -97 -29 -100 14 -13 943 -353 948 -347 16
19 71 186 64 192 -10 9 -927 351 -940 351 -5 0 -24 -43 -43 -96z"/>
<path d="M9465 6878 c-22 -5 -56 -14 -76 -19 l-36 -9 36 -145 c26 -105 32
-148 24 -153 -6 -4 -172 -47 -370 -96 -197 -49 -362 -92 -366 -96 -7 -7 35
-195 46 -207 3 -3 173 37 377 87 248 62 374 89 379 82 3 -6 21 -72 40 -146 19
-77 38 -136 45 -136 14 0 157 37 161 42 2 2 -39 174 -91 383 -52 209 -96 390
-99 403 -6 24 -11 25 -70 10z"/>
<path d="M1573 6529 c-155 -49 -265 -231 -250 -412 12 -138 91 -251 215 -310
61 -29 76 -32 167 -32 91 0 105 3 158 29 146 74 235 248 225 441 -3 53 -12 95
-26 125 -36 77 -32 76 -110 26 l-71 -45 16 -32 c53 -105 8 -271 -87 -319 -32
-17 -80 -27 -80 -17 0 1 23 117 50 257 27 140 50 263 50 272 0 12 -14 19 -50
27 -73 16 -136 13 -207 -10z m97 -184 c0 -17 -61 -338 -65 -343 -2 -2 -17 4
-34 13 -133 68 -98 300 50 335 49 11 49 11 49 -5z"/>
<path d="M9021 5849 c-150 -29 -236 -141 -234 -304 0 -81 21 -144 64 -197 l30
-38 -41 0 -40 0 0 -100 0 -100 370 0 370 0 0 111 0 110 -217 -2 c-235 -2 -264
2 -310 52 -68 75 -53 200 30 242 32 16 67 20 262 25 l225 5 0 104 0 103 -232
-1 c-128 -1 -253 -5 -277 -10z"/>
<path d="M1258 5653 c2 -54 7 -101 11 -104 3 -4 115 -48 248 -100 133 -51 240
-96 238 -99 -2 -3 -112 -53 -244 -110 l-241 -105 0 -95 c0 -52 4 -101 9 -109
7 -10 86 22 370 150 l362 163 -7 110 c-4 61 -7 111 -8 112 -5 4 -729 284 -735
284 -5 0 -6 -44 -3 -97z"/>
<path d="M8859 4997 c-87 -46 -143 -158 -143 -287 0 -48 6 -76 23 -108 l22
-44 -38 7 -39 6 -21 -93 c-12 -51 -18 -96 -15 -99 18 -17 442 -102 507 -103
187 -1 306 161 309 419 0 84 -18 195 -32 195 -4 0 -23 -4 -42 -9 -19 -6 -54
-15 -76 -20 l-42 -11 15 -48 c31 -99 0 -241 -63 -291 -35 -28 -118 -30 -110
-3 46 152 58 329 27 397 -48 104 -178 147 -282 92z m138 -202 c35 -24 38 -74
13 -181 l-22 -95 -31 7 c-48 10 -66 22 -87 57 -22 36 -26 109 -9 154 25 67 86
93 136 58z"/>
<path d="M1640 4906 c-196 -55 -306 -229 -271 -426 49 -275 313 -415 555 -294
71 35 129 96 163 168 26 57 28 70 27 181 0 132 -15 188 -75 278 -26 40 -101
107 -118 107 -4 0 -25 -30 -49 -66 l-43 -66 40 -43 c91 -99 106 -239 34 -322
-16 -18 -34 -34 -42 -35 -10 -2 -31 64 -81 262 -47 187 -70 265 -81 267 -8 1
-34 -4 -59 -11z m41 -381 c24 -96 40 -177 37 -180 -11 -11 -77 7 -111 29 -65
43 -98 166 -63 235 13 24 79 91 90 91 2 0 23 -79 47 -175z"/>
<path d="M8572 4205 c-23 -47 -42 -90 -42 -96 0 -5 82 -50 183 -99 221 -107
249 -131 255 -220 4 -51 1 -66 -23 -106 -32 -55 -79 -79 -138 -70 -21 4 -126
49 -234 101 l-195 94 -45 -96 c-36 -76 -43 -97 -32 -104 8 -5 110 -54 227
-110 199 -95 218 -102 288 -107 55 -3 86 0 119 13 58 22 126 90 162 163 25 51
28 68 28 155 0 53 1 97 3 97 2 0 17 -7 35 -16 20 -11 32 -13 35 -6 2 6 21 47
43 93 22 45 38 83 37 84 -9 7 -651 315 -657 315 -3 0 -26 -38 -49 -85z"/>
<path d="M1901 4079 c-140 -27 -285 -139 -349 -268 -36 -74 -37 -77 -37 -190
0 -95 5 -127 23 -180 25 -69 252 -491 265 -491 6 0 824 446 835 456 8 6 -232
431 -270 482 -116 151 -296 225 -467 191z m239 -245 c29 -16 67 -45 84 -66 44
-51 151 -248 140 -257 -27 -24 -509 -280 -515 -274 -14 16 -101 179 -120 226
-29 72 -26 169 7 235 73 146 266 211 404 136z"/>
<path d="M8047 3272 c-42 -43 -77 -82 -77 -87 0 -6 16 -50 35 -99 19 -49 35
-93 35 -97 0 -3 -72 -75 -160 -159 l-160 -153 -103 46 -102 46 -70 -68 c-38
-38 -75 -67 -81 -64 -14 5 -184 -87 -184 -100 0 -5 44 -89 98 -186 95 -172 97
-178 97 -241 0 -50 -5 -71 -20 -91 -31 -42 -81 -71 -130 -77 -81 -9 -105 16
-229 242 -59 108 -110 196 -113 196 -4 0 -172 -89 -181 -96 -10 -7 228 -423
265 -464 60 -67 125 -93 217 -88 86 4 150 33 220 98 27 25 59 67 72 94 l22 48
17 -33 c10 -19 19 -35 20 -37 5 -6 175 90 175 98 0 6 -179 337 -291 537 -28
51 -28 52 -6 44 12 -5 219 -91 461 -190 241 -100 441 -181 445 -181 3 1 41 34
84 73 l78 73 -171 484 c-94 266 -174 490 -178 497 -5 9 -31 -11 -85 -65z m133
-642 c34 -91 64 -170 67 -177 3 -7 -77 25 -178 70 l-182 81 109 103 c60 56
111 99 115 95 3 -4 34 -81 69 -172z"/>
<path d="M2823 2962 c-114 -41 -225 -160 -259 -280 -21 -70 -14 -169 15 -235
27 -62 113 -153 175 -184 27 -14 72 -27 102 -30 l52 -6 -109 -128 c-60 -71
-109 -133 -109 -138 0 -6 35 -39 77 -75 60 -50 80 -63 89 -53 51 55 645 769
643 772 -2 1 -38 31 -79 65 l-74 62 -27 -30 -27 -30 -6 42 c-14 87 -101 186
-204 234 -76 34 -185 40 -259 14z m248 -216 c102 -68 113 -193 27 -291 -85
-97 -188 -108 -275 -32 -65 57 -81 143 -42 224 24 49 89 109 134 123 45 14
115 3 156 -24z"/>
<path d="M3553 2470 c-28 -11 -28 -6 -2 -93 l21 -72 76 0 c68 0 84 -4 132 -31
71 -40 111 -96 118 -163 3 -34 1 -51 -7 -51 -6 0 -119 54 -251 120 -132 66
-242 120 -245 120 -4 0 -20 -30 -38 -67 -29 -62 -32 -77 -32 -163 0 -83 3
-102 28 -151 48 -100 158 -184 277 -215 174 -44 352 40 433 205 29 60 32 74
32 161 0 82 -4 103 -27 153 -40 85 -119 159 -224 209 -80 39 -95 42 -178 45
-50 2 -101 -1 -113 -7z m128 -451 c161 -80 161 -80 143 -101 -25 -28 -92 -58
-129 -58 -49 0 -130 44 -159 86 -21 31 -26 51 -26 96 0 32 2 58 5 58 3 0 78
-36 166 -81z"/>
<path d="M6517 2225 c-49 -13 -91 -25 -93 -28 -3 -3 17 -93 45 -199 28 -107
51 -211 51 -230 0 -52 -39 -118 -84 -141 -56 -29 -124 -33 -162 -9 -44 28 -66
81 -120 292 -26 102 -51 189 -55 194 -7 8 -166 -27 -195 -43 -16 -9 105 -454
142 -521 34 -61 100 -113 167 -131 101 -27 244 15 328 97 l46 45 38 -148 c21
-81 42 -158 46 -170 l8 -22 98 26 c54 15 100 28 101 29 8 6 -254 984 -263 983
-5 0 -50 -11 -98 -24z"/>
<path d="M4341 1929 c-59 -123 -160 -328 -224 -456 l-116 -231 87 -12 c48 -6
95 -14 104 -16 14 -4 48 56 177 313 90 181 161 312 164 303 3 -8 29 -157 57
-330 28 -173 55 -324 59 -336 7 -17 24 -22 105 -33 53 -8 98 -12 100 -10 2 2
74 143 161 312 86 169 159 307 161 305 2 -2 29 -157 60 -343 31 -187 57 -341
58 -342 4 -5 218 -34 222 -31 4 4 -163 989 -169 993 -4 4 -230 35 -233 33 -1
-2 -71 -137 -154 -301 -84 -164 -154 -296 -157 -294 -2 3 -28 150 -58 328 -30
177 -58 326 -62 329 -5 4 -48 13 -98 19 -49 7 -100 15 -113 18 -21 5 -31 -13
-131 -218z"/>
<path d="M5660 2063 c-8 -3 -27 -17 -42 -31 -101 -94 -11 -258 122 -222 79 21
119 106 87 183 -25 59 -104 93 -167 70z"/>
</g>
</svg>
